<svg id="facade" enable-background="new 0 0 300 300" height="512" viewBox="0 0 300 300" width="512" xmlns="http://www.w3.org/2000/svg"><path d="m158 270.4c-1.463 0-2.921-.4-4.206-1.194-2.358-1.458-3.794-4.033-3.794-6.806v-112c0-3.03 1.712-5.8 4.422-7.155l96-48c2.482-1.24 5.425-1.107 7.784.35 2.358 1.458 3.794 4.033 3.794 6.806v112c0 3.03-1.712 5.8-4.422 7.155l-96 48c-1.13.564-2.355.844-3.578.844zm8-115.056v94.111l80-40v-94.111z"/><path d="m146.4 135.2c-1.285 0-2.568-.31-3.736-.926l-92.4-48.8c-2.712-1.433-4.366-4.289-4.259-7.354s1.958-5.799 4.764-7.038l92.4-40.8c1.99-.879 4.252-.908 6.264-.085l99.6 40.8c2.915 1.194 4.858 3.988 4.963 7.136s-1.646 6.065-4.476 7.451l-99.6 48.8c-1.11.544-2.316.816-3.52.816zm-74.051-56.157 74.188 39.181 79.951-39.172-79.97-32.759z"/><path d="m49.562 219.816c-2.473 0-4.911-1.143-6.477-3.296-2.599-3.573-1.809-8.576 1.765-11.175l81.698-59.417c3.573-2.599 8.577-1.808 11.175 1.765 2.599 3.573 1.809 8.576-1.765 11.175l-81.698 59.417c-1.42 1.033-3.068 1.531-4.698 1.531z"/><path d="m47.365 179.959c-2.473 0-4.911-1.143-6.477-3.296-2.599-3.573-1.809-8.576 1.765-11.175l53.789-39.12c3.573-2.599 8.577-1.809 11.175 1.765 2.599 3.573 1.809 8.576-1.765 11.175l-53.789 39.12c-1.419 1.033-3.067 1.531-4.698 1.531z"/><path d="m81.697 237.899c-2.473 0-4.911-1.143-6.477-3.296-2.599-3.573-1.809-8.576 1.765-11.175l49.728-36.165c3.573-2.599 8.578-1.808 11.175 1.765 2.599 3.573 1.809 8.576-1.765 11.175l-49.728 36.165c-1.419 1.033-3.067 1.531-4.698 1.531z"/><path d="m134 270.4c-1.317 0-2.636-.325-3.831-.977l-88-48c-2.57-1.402-4.169-4.095-4.169-7.023v-112c0-2.823 1.488-5.438 3.916-6.879 2.431-1.44 5.438-1.494 7.915-.145l88 48c2.57 1.402 4.169 4.096 4.169 7.023v112c0 2.823-1.488 5.438-3.916 6.879-1.258.747-2.67 1.122-4.084 1.122zm-80-60.749 72 39.272v-93.774l-72-39.272z" fill="#476afc"/></svg>